<?xml version="1.0" standalone="no"?><!DOCTYPE svg PUBLIC "-//W3C//DTD SVG 1.1//EN" "http://www.w3.org/Graphics/SVG/1.1/DTD/svg11.dtd"><svg t="1702993770805" class="icon" viewBox="0 0 1024 1024" version="1.1" xmlns="http://www.w3.org/2000/svg" p-id="2970" xmlns:xlink="http://www.w3.org/1999/xlink" width="200" height="200"><path d="M170.652104 460.816178a17.065142 17.065142 0 0 0-33.857242-2.935205c-4.948891 3.515419-23.003812 9.044525-51.434338 9.044526s-46.485447-5.529106-51.434339-9.044526a16.996882 16.996882 0 0 0-18.225572-14.061677 17.065142 17.065142 0 0 0-15.69993 16.996882c0 2.832814 0.375433 5.460845 1.092169 7.918226 5.221934 31.809425 33.038115 203.484755 33.038115 265.124049s-27.816182 233.314624-33.038115 265.124049a28.089224 28.089224 0 0 0-1.092169 7.918226 17.065142 17.065142 0 0 0 15.63167 16.996881 16.928621 16.928621 0 0 0 18.225572-14.061677c4.948891-3.515419 23.003812-9.044525 51.434338-9.044525s46.485447 5.529106 51.434339 9.044525a17.065142 17.065142 0 0 0 16.7921 14.129938c0.477824 0 0.955648 0 1.433472-0.068261a17.065142 17.065142 0 0 0 15.69993-16.996881 28.089224 28.089224 0 0 0-1.092169-7.918226C164.338002 967.173077 136.52182 795.497746 136.52182 733.858453s27.816182-233.314624 33.038115-265.124049A28.089224 28.089224 0 0 0 170.652104 460.816178z m358.367986 17.065142c1.979556 0 3.959113-0.341303 5.870409-1.058039 170.651422-62.526681 229.867465-136.896571 315.944043-280.277895a17.065142 17.065142 0 0 0-20.068608-24.949238c-159.183646 53.618677-263.076232 146.145878-317.582296 282.905927a17.065142 17.065142 0 0 0 15.836452 23.379245z m482.943524 34.915281c-25.904886-8.157138-49.796085-16.723839-72.663375-24.915108-120.172731-43.072419-215.054922-77.134443-416.901424 8.43018a17.065142 17.065142 0 0 0-0.307172 31.297471c107.339744 47.884789 178.364866 71.093382 253.485621 71.093383 66.451664 0 136.111574-18.157311 236.932435-53.482156a16.996882 16.996882 0 0 0 11.399515-16.348406 17.235794 17.235794 0 0 0-11.9456-16.075364zM477.824664 529.076746a17.065142 17.065142 0 0 0-33.379418-4.948891c-16.143625 9.65887-87.714831 9.65887-103.858456 0a17.065142 17.065142 0 0 0-33.379418 4.948891c0 2.730423 0.375433 5.221934 1.1263 7.576924 5.187803 27.816182 33.003985 179.730077 33.003985 231.335067s-27.816182 203.518886-33.003985 231.335067a23.652287 23.652287 0 0 0-1.16043 7.576924 17.065142 17.065142 0 0 0 33.379418 4.948891c16.143625-9.65887 87.714831-9.65887 103.858455 0a17.065142 17.065142 0 0 0 16.314276 12.116251c0.546085 0 1.058039 0 1.604124-0.068261a17.065142 17.065142 0 0 0 15.461018-16.996881 24.642065 24.642065 0 0 0-1.126299-7.576924c-5.153673-27.816182-32.969855-179.695947-32.969855-231.335067s27.816182-203.518886 33.003985-231.335067a24.642065 24.642065 0 0 0 1.1263-7.576924zM462.363645 0.125599a16.962751 16.962751 0 0 0-17.918399 12.047991c-16.143625 9.65887-87.714831 9.65887-103.858456 0a17.065142 17.065142 0 0 0-33.379418 4.948891c0 2.730423 0.375433 5.221934 1.1263 7.576923 5.187803 27.816182 33.003985 179.730077 33.003985 231.335068s-27.816182 203.518886-33.003985 231.335067a23.652287 23.652287 0 0 0-1.16043 7.576923 17.065142 17.065142 0 0 0 33.379418 4.948891c16.143625-9.65887 87.714831-9.65887 103.858455 0a17.065142 17.065142 0 0 0 16.314276 12.116251c0.546085 0 1.058039 0 1.604124-0.06826a17.065142 17.065142 0 0 0 15.461018-16.996882 24.642065 24.642065 0 0 0-1.126299-7.576923C471.510561 459.553357 443.694379 307.673592 443.694379 256.034472s27.816182-203.518886 33.003985-231.335068A24.642065 24.642065 0 0 0 477.824664 17.122481a17.065142 17.065142 0 0 0-15.461019-16.996882z" p-id="2971" fill="#2c2c2c"></path></svg>